<svg width="14" height="13" viewBox="0 0 14 13" fill="none" xmlns="http://www.w3.org/2000/svg">
<path d="M13.1929 0.38572C13.1929 0.228578 13.0643 0.100006 12.9071 0.100006L10.55 0.110721L7 4.34286L3.45357 0.114293L1.09286 0.103578C0.935715 0.103578 0.807144 0.228578 0.807144 0.389292C0.807144 0.457149 0.832144 0.521435 0.875001 0.575007L5.52143 6.11072L0.875001 11.6429C0.831845 11.6952 0.8079 11.7607 0.807144 11.8286C0.807144 11.9857 0.935715 12.1143 1.09286 12.1143L3.45357 12.1036L7 7.87144L10.5464 12.1L12.9036 12.1107C13.0607 12.1107 13.1893 11.9857 13.1893 11.825C13.1893 11.7571 13.1643 11.6929 13.1214 11.6393L8.48214 6.10715L13.1286 0.571435C13.1714 0.521435 13.1929 0.453578 13.1929 0.38572Z" fill="#696B6F"/>
</svg>
