<svg width="14" height="12" viewBox="0 0 14 12" fill="none" xmlns="http://www.w3.org/2000/svg">
<path d="M13.5 0H0.5C0.223438 0 0 0.24375 0 0.545455V11.4545C0 11.7563 0.223438 12 0.5 12H13.5C13.7766 12 14 11.7563 14 11.4545V0.545455C14 0.24375 13.7766 0 13.5 0ZM12.875 10.7727H1.125V10.0926L3.28906 7.29205L5.63438 10.3261L9.28281 5.60795L12.875 10.2545V10.7727ZM12.875 8.56023L9.37813 4.03636C9.32813 3.97159 9.2375 3.97159 9.1875 4.03636L5.63438 8.63182L3.38438 5.72216C3.33438 5.65739 3.24375 5.65739 3.19375 5.72216L1.125 8.3983V1.22727H12.875V8.56023ZM3.75 5.04545C3.93057 5.04545 4.10937 5.00666 4.27619 4.93127C4.44301 4.85589 4.59459 4.7454 4.72227 4.60611C4.84995 4.46683 4.95123 4.30147 5.02033 4.11948C5.08943 3.93749 5.125 3.74244 5.125 3.54545C5.125 3.34847 5.08943 3.15342 5.02033 2.97143C4.95123 2.78944 4.84995 2.62408 4.72227 2.48479C4.59459 2.34551 4.44301 2.23502 4.27619 2.15964C4.10937 2.08425 3.93057 2.04545 3.75 2.04545C3.38533 2.04545 3.03559 2.20349 2.77773 2.48479C2.51987 2.7661 2.375 3.14763 2.375 3.54545C2.375 3.94328 2.51987 4.32481 2.77773 4.60611C3.03559 4.88742 3.38533 5.04545 3.75 5.04545ZM3.75 3.06818C3.99219 3.06818 4.1875 3.28125 4.1875 3.54545C4.1875 3.80966 3.99219 4.02273 3.75 4.02273C3.50781 4.02273 3.3125 3.80966 3.3125 3.54545C3.3125 3.28125 3.50781 3.06818 3.75 3.06818Z" fill="#696B6F"/>
</svg>
