<svg width="15" height="20" viewBox="0 0 74 96" fill="none" xmlns="http://www.w3.org/2000/svg">
<g clip-path="url(#clip0_1616_5209)">
<path d="M73.5708 20.1716L71.3181 17.9189L55.5873 2.18648L55.584 2.18483L54.3095 0.90869C53.7219 0.322759 52.9423 0 52.1131 0H4.07669C2.112 0 0 1.51614 0 4.84303V64.5517V91.9233V92.6897C0 94.075 1.392 95.424 3.0389 95.8494C3.12331 95.8726 3.20441 95.904 3.29048 95.9206C3.54869 95.9719 3.81186 96 4.07669 96H70.4061C70.6709 96 70.9341 95.9719 71.1923 95.9206C71.2783 95.904 71.3594 95.8726 71.4439 95.8494C73.0908 95.424 74.4828 94.075 74.4828 92.6897V91.9233V64.5517V23.136C74.4828 21.8665 74.3288 20.928 73.5708 20.1716ZM54.6207 5.90069L68.5821 19.8621H54.6207V5.90069ZM4.07669 92.6897C3.95917 92.6897 3.85324 92.6483 3.74897 92.6086C3.49241 92.4861 3.31034 92.2279 3.31034 91.9233V67.8621H71.1724V91.9233C71.1724 92.2279 70.9903 92.4861 70.7338 92.6086C70.6295 92.6483 70.5236 92.6897 70.4061 92.6897H4.07669ZM3.31034 64.5517V4.84303C3.31034 4.48386 3.36497 3.31034 4.07669 3.31034H51.4063C51.3517 3.5189 51.3103 3.73407 51.3103 3.95752V22.8083C50.4298 22.0138 49.2761 21.5172 48 21.5172C47.0847 21.5172 46.3448 22.2588 46.3448 23.1724C46.3448 24.0861 47.0847 24.8276 48 24.8276C48.9137 24.8276 49.6552 25.5708 49.6552 26.4828V33.1034C49.6552 35.0897 50.5523 36.8541 51.9426 38.069C50.5523 39.2839 49.6552 41.0483 49.6552 43.0345V49.6552C49.6552 50.5672 48.9137 51.3103 48 51.3103C47.0847 51.3103 46.3448 52.0519 46.3448 52.9655C46.3448 53.8792 47.0847 54.6207 48 54.6207C50.7377 54.6207 52.9655 52.3928 52.9655 49.6552V43.0345C52.9655 41.2088 54.4502 39.7241 56.2759 39.7241C57.1912 39.7241 57.931 38.9826 57.931 38.069C57.931 37.1553 57.1912 36.4138 56.2759 36.4138C54.4502 36.4138 52.9655 34.9291 52.9655 33.1034V26.4828C52.9655 25.2066 52.4673 24.053 51.6745 23.1724H70.5252C70.7487 23.1724 70.9639 23.131 71.1724 23.0764C71.1724 23.1012 71.1741 23.1112 71.1741 23.136V64.5517H3.31034Z" fill="#696B6F"/>
<path d="M16.3102 85.1256C16.2788 85.8638 16.0272 86.3902 15.5521 86.6981C15.0771 87.0059 14.4399 87.1615 13.6404 87.1615C13.3243 87.1615 12.985 87.1251 12.6225 87.0489C12.26 86.9728 11.9124 86.8867 11.5814 86.7891C11.2503 86.6914 10.9441 86.5855 10.6644 86.4729C10.3847 86.3604 10.1695 86.2495 10.0189 86.1452L8.86523 87.9775C9.16813 88.2043 9.53558 88.4078 9.9742 88.5883C10.4128 88.7687 10.868 88.9309 11.343 89.0749C11.8181 89.2189 12.2782 89.3232 12.7234 89.391C13.1687 89.4589 13.5576 89.4936 13.8887 89.4936C14.5524 89.4936 15.1979 89.4291 15.8236 89.3016C16.4492 89.1742 17.0037 88.9474 17.487 88.623C17.9703 88.2986 18.3543 87.8683 18.6407 87.3336C18.927 86.799 19.071 86.1369 19.071 85.354V72.3643H16.3102V85.1256Z" fill="#696B6F"/>
<path d="M30.758 81.2094C30.2383 80.832 29.6755 80.5109 29.0714 80.2477C28.4673 79.9846 27.9095 79.7131 27.3964 79.4334C26.8833 79.1537 26.4546 78.8309 26.107 78.4602C25.7594 78.0894 25.5873 77.6028 25.5873 77.0003C25.5873 76.7586 25.6468 76.5054 25.7677 76.2422C25.8885 75.9791 26.054 75.7407 26.2659 75.5289C26.4777 75.317 26.7177 75.1415 26.9908 74.9975C27.2639 74.8535 27.5486 74.7675 27.8515 74.7377C28.3944 74.693 28.8397 74.6847 29.1873 74.7145C29.5348 74.7443 29.8129 74.7973 30.0248 74.8734C30.2366 74.9495 30.3988 75.024 30.5114 75.1002C30.6239 75.1763 30.7266 75.2359 30.8176 75.2806C30.8325 75.2657 30.8772 75.1895 30.9533 75.0538C31.0295 74.9181 31.1205 74.7476 31.2248 74.544C31.329 74.3404 31.4433 74.122 31.5641 73.8886C31.6849 73.6552 31.7908 73.44 31.8802 73.2431C31.4416 72.9567 30.8706 72.7482 30.1605 72.6207C29.4504 72.4933 28.7486 72.4287 28.0568 72.4287C27.3781 72.4287 26.7326 72.533 26.1219 72.7449C25.5111 72.9567 24.9765 73.2629 24.5147 73.6618C24.0529 74.0607 23.6888 74.5473 23.4173 75.1217C23.1459 75.696 23.0068 76.3531 23.0068 77.0913C23.0068 77.9057 23.179 78.5843 23.5266 79.1272C23.8741 79.6701 24.3111 80.1418 24.8391 80.5407C25.3671 80.9396 25.9332 81.2872 26.5357 81.5818C27.1381 81.8764 27.7009 82.1694 28.2223 82.464C28.7437 82.7586 29.1757 83.0864 29.5233 83.4488C29.8708 83.8113 30.043 84.2483 30.043 84.7614C30.043 85.6072 29.798 86.2444 29.3081 86.6731C28.8181 87.1018 28.1114 87.3186 27.1928 87.3186C26.8899 87.3186 26.5671 87.2872 26.2195 87.2276C25.8719 87.168 25.526 87.0886 25.1784 86.9893C24.8308 86.89 24.4965 86.7857 24.1721 86.6731C23.8477 86.5606 23.5812 86.4431 23.3693 86.3222L22.8943 88.2687C23.1508 88.4955 23.457 88.6875 23.8113 88.8464C24.1655 89.0053 24.5379 89.1294 24.9318 89.2204C25.3241 89.3115 25.713 89.376 26.097 89.4124C26.481 89.4489 26.8551 89.4687 27.2176 89.4687C28.0634 89.4687 28.8165 89.3413 29.4802 89.0847C30.1439 88.8282 30.7017 88.4855 31.1553 88.0552C31.6088 87.6249 31.958 87.1266 32.2079 86.5622C32.4579 85.9978 32.582 85.4119 32.582 84.8077C32.582 83.9173 32.4099 83.189 32.0623 82.6246C31.7147 82.0602 31.2777 81.5868 30.758 81.2094Z" fill="#696B6F"/>
<path d="M46.9606 74.602C46.3349 73.8919 45.6033 73.354 44.7658 72.9832C43.9283 72.6124 43.0113 72.4287 42.0166 72.4287C41.0218 72.4287 40.1049 72.6124 39.2673 72.9832C38.4298 73.354 37.6982 73.8919 37.0726 74.602C36.4469 75.312 35.9553 76.1975 35.6011 77.2602C35.2469 78.3228 35.0698 79.5575 35.0698 80.9595C35.0698 82.3614 35.2469 83.5995 35.6011 84.6704C35.9553 85.7413 36.4469 86.6317 37.0726 87.3402C37.6982 88.0486 38.4298 88.5848 39.2673 88.9473C40.1049 89.3098 41.0218 89.4902 42.0166 89.4902C43.0113 89.4902 43.9283 89.3098 44.7658 88.9473C45.6033 88.5848 46.3349 88.0502 46.9606 87.3402C47.5862 86.6301 48.0778 85.7413 48.432 84.6704C48.7862 83.5995 48.9633 82.3614 48.9633 80.9595C48.9633 79.5575 48.7862 78.3228 48.432 77.2602C48.0778 76.1975 47.5862 75.312 46.9606 74.602ZM45.84 83.914C45.6133 84.72 45.3004 85.3738 44.9015 85.872C44.5026 86.3702 44.0491 86.7294 43.5443 86.9462C43.0395 87.1631 42.5065 87.274 41.9487 87.274C41.4058 87.274 40.8878 87.1581 40.3978 86.9231C39.9079 86.688 39.4693 86.3206 39.0853 85.8141C38.7013 85.3076 38.3984 84.6571 38.1799 83.856C37.9614 83.0549 37.8439 82.0916 37.829 80.9595C37.8439 79.7975 37.9647 78.8177 38.1915 78.0182C38.4182 77.2188 38.7311 76.5666 39.13 76.0602C39.5289 75.5537 39.9824 75.1978 40.4872 74.986C40.992 74.7741 41.525 74.6698 42.0828 74.6698C42.6257 74.6698 43.1438 74.7824 43.6337 75.0091C44.1236 75.2359 44.5622 75.605 44.9462 76.1181C45.3302 76.6312 45.6331 77.2833 45.8516 78.0762C46.0701 78.869 46.1876 79.8306 46.2025 80.9611C46.1876 82.1231 46.0668 83.1079 45.84 83.914Z" fill="#696B6F"/>
<path d="M62.0887 84.1968L55.5492 72.7017H52.7883V89.3792H55.5492V77.884L62.0887 89.3792H64.8496V72.7017H62.0887V84.1968Z" fill="#696B6F"/>
<path d="M23.1723 33.1033V26.4826C23.1723 25.5706 23.9139 24.8274 24.8275 24.8274C25.7428 24.8274 26.4827 24.0859 26.4827 23.1723C26.4827 22.2586 25.7428 21.5171 24.8275 21.5171C22.0899 21.5171 19.862 23.745 19.862 26.4826V33.1033C19.862 34.929 18.3773 36.4136 16.5517 36.4136C15.6363 36.4136 14.8965 37.1552 14.8965 38.0688C14.8965 38.9825 15.6363 39.724 16.5517 39.724C18.3773 39.724 19.862 41.2087 19.862 43.0343V49.655C19.862 52.3927 22.0899 54.6205 24.8275 54.6205C25.7428 54.6205 26.4827 53.879 26.4827 52.9654C26.4827 52.0517 25.7428 51.3102 24.8275 51.3102C23.9139 51.3102 23.1723 50.567 23.1723 49.655V43.0343C23.1723 41.0481 22.2752 39.2837 20.8849 38.0688C22.2752 36.8539 23.1723 35.0895 23.1723 33.1033Z" fill="#696B6F"/>
<path d="M36.4137 34.7585C37.7849 34.7585 38.8964 33.6469 38.8964 32.2757C38.8964 30.9045 37.7849 29.793 36.4137 29.793C35.0425 29.793 33.9309 30.9045 33.9309 32.2757C33.9309 33.6469 35.0425 34.7585 36.4137 34.7585Z" fill="#696B6F"/>
<path d="M36.4137 41.3794C35.4984 41.3794 34.7585 42.1209 34.7585 43.0346V48.0001C34.7585 48.9137 35.4984 49.6553 36.4137 49.6553C37.329 49.6553 38.0689 48.9137 38.0689 48.0001V43.0346C38.0689 42.1209 37.329 41.3794 36.4137 41.3794Z" fill="#696B6F"/>
</g>
<defs>
<clipPath id="clip0_1616_5209">
<rect width="74" height="96" fill="white"/>
</clipPath>
</defs>
</svg>
