<svg width="26" height="30" viewBox="0 0 26 30" fill="none" xmlns="http://www.w3.org/2000/svg">
<path d="M24.4286 13.2857H22V5.28572C22 2.76072 19.9536 0.714294 17.4286 0.714294H8.57143C6.04643 0.714294 4 2.76072 4 5.28572V13.2857H1.57143C0.939288 13.2857 0.428574 13.7964 0.428574 14.4286V28.1429C0.428574 28.775 0.939288 29.2857 1.57143 29.2857H24.4286C25.0607 29.2857 25.5714 28.775 25.5714 28.1429V14.4286C25.5714 13.7964 25.0607 13.2857 24.4286 13.2857ZM6.57143 5.28572C6.57143 4.18215 7.46786 3.28572 8.57143 3.28572H17.4286C18.5321 3.28572 19.4286 4.18215 19.4286 5.28572V13.2857H6.57143V5.28572ZM23 26.7143H3V15.8572H23V26.7143ZM12 21.75V23.6429C12 23.8 12.1286 23.9286 12.2857 23.9286H13.7143C13.8714 23.9286 14 23.8 14 23.6429V21.75C14.2948 21.5383 14.5149 21.2386 14.6285 20.8939C14.7421 20.5492 14.7434 20.1774 14.6322 19.8319C14.521 19.4864 14.3031 19.1852 14.0098 18.9714C13.7165 18.7577 13.3629 18.6425 13 18.6425C12.6371 18.6425 12.2835 18.7577 11.9902 18.9714C11.6969 19.1852 11.479 19.4864 11.3678 19.8319C11.2566 20.1774 11.2579 20.5492 11.3715 20.8939C11.4851 21.2386 11.7052 21.5383 12 21.75Z" fill="#E625EA"/>
</svg>
