<svg width="166" height="149" viewBox="0 0 166 149" fill="none" xmlns="http://www.w3.org/2000/svg">
<path d="M43.2795 99.2046C40.9089 97.3315 37.9377 96.2998 34.9135 96.2998C30.8035 96.2998 26.9761 98.126 24.4127 101.311C22.1712 104.099 21.1563 107.587 21.5563 111.132C21.9569 114.684 23.7289 117.866 26.5455 120.092C28.9161 121.966 31.8862 122.997 34.9099 122.997C39.023 122.997 42.8508 121.168 45.4123 117.98C47.6517 115.196 48.6656 111.712 48.2671 108.169C47.8676 104.617 46.0965 101.433 43.2795 99.2046ZM40.64 114.143C39.246 115.879 37.157 116.875 34.9099 116.875C33.2348 116.875 31.6551 116.326 30.3427 115.289C28.8166 114.083 27.8573 112.363 27.6405 110.445C27.4251 108.535 27.9731 106.654 29.1829 105.149C30.5774 103.417 32.6664 102.423 34.9135 102.423C36.5902 102.423 38.1704 102.971 39.4822 104.008C41.0078 105.214 41.9666 106.935 42.1824 108.854C42.3972 110.762 41.8503 112.64 40.64 114.143Z" fill="#696B6F"/>
<path d="M97.1148 67.848C99.1343 67.848 101.087 67.4056 102.923 66.5305C106.17 64.9774 108.608 62.2603 109.788 58.8794C110.962 55.52 110.751 51.9049 109.195 48.7031C106.969 44.114 102.214 41.1484 97.0826 41.1484C95.059 41.1484 93.1022 41.5924 91.2663 42.4684C88.0212 44.0165 85.5817 46.7315 84.3995 50.1134C83.2234 53.4754 83.4341 57.091 84.9929 60.2943C87.2262 64.883 91.9843 67.848 97.1148 67.848ZM90.1785 52.1345C90.8183 50.3053 92.1409 48.8348 93.9023 47.9944C94.9085 47.5148 95.9779 47.2714 97.0821 47.2714C99.8839 47.2714 102.476 48.8822 103.686 51.3778C104.526 53.1045 104.639 55.0511 104.008 56.8604C103.368 58.6906 102.044 60.1632 100.285 61.0051C99.2823 61.4832 98.2154 61.7251 97.1142 61.7251C94.3099 61.7251 91.7128 60.1117 90.4974 57.615C89.6591 55.8909 89.5458 53.9449 90.1785 52.1345Z" fill="#696B6F"/>
<path d="M63.7984 46.2122C64.7832 46.4347 65.7909 46.5475 66.7935 46.5475C73.0961 46.5475 78.4807 42.2849 79.889 36.1757C80.6804 32.7117 80.0716 29.1456 78.1766 26.1331C76.2657 23.0972 73.2793 20.9868 69.7698 20.1918C68.781 19.9673 67.7691 19.853 66.7619 19.853C60.4635 19.853 55.0845 24.1202 53.6808 30.2283C52.8828 33.6898 53.4874 37.2564 55.383 40.271C57.2954 43.311 60.2849 45.4214 63.7984 46.2122ZM59.6481 31.6019C60.4089 28.2899 63.3346 25.9765 66.7619 25.9765C67.3125 25.9765 67.8681 26.0392 68.4146 26.1632C70.329 26.5969 71.9552 27.7445 72.994 29.3946C74.0176 31.0207 74.3462 32.9444 73.9206 34.8057C73.1701 38.0616 70.1724 40.4245 66.793 40.4245C66.244 40.4245 65.6904 40.3623 65.1455 40.2393C63.2305 39.8082 61.6044 38.6617 60.566 37.0115C59.5445 35.3864 59.2185 33.4658 59.6481 31.6019Z" fill="#696B6F"/>
<path d="M39.4704 53.8502C42.2839 51.6209 44.0529 48.4365 44.4529 44.8837C44.8514 41.3416 43.8396 37.8576 41.5991 35.0691C39.0316 31.8857 35.2012 30.0601 31.0911 30.0601C28.07 30.0601 25.1019 31.0887 22.7308 32.9588C19.9168 35.1814 18.1467 38.3607 17.7452 41.911C17.3441 45.4577 18.3585 48.9478 20.6031 51.7408C23.1686 54.9278 26.9995 56.756 31.1141 56.756C34.1378 56.7555 37.1059 55.7238 39.4704 53.8502ZM25.3749 47.9023C24.1625 46.394 23.614 44.5102 23.8304 42.5978C24.0467 40.6828 25.0049 38.9654 26.5255 37.7637C27.8373 36.729 29.4165 36.182 31.0916 36.182C33.3408 36.182 35.4343 37.1769 36.8299 38.9072C38.0366 40.4104 38.5836 42.2896 38.3687 44.1984C38.1529 46.119 37.1937 47.8426 35.6685 49.0508C34.3628 50.0851 32.7877 50.6321 31.1146 50.6321C28.8629 50.6326 26.7709 49.6366 25.3749 47.9023Z" fill="#696B6F"/>
<path d="M164.679 23.8917C164.15 23.358 163.206 22.7217 161.716 22.7217C159.97 22.7217 155.33 22.7217 127.152 46.6991C126.586 47.1808 126.015 47.6691 125.441 48.1609C120.406 35.0278 111.561 23.3192 100.162 14.8501C87.0931 5.13969 71.5306 0.00408195 55.1589 0C55.1538 0 55.1503 0 55.1462 0C44.0974 0 30.6667 3.86051 20.0939 10.0768C7.13373 17.6958 -0.00255054 27.8854 6.8381e-07 38.7673C0.00408264 51.9051 7.41385 57.4004 13.3679 61.8156C18.2229 65.4164 22.0574 68.26 22.0594 74.4921C22.0609 80.7237 18.2285 83.5647 13.3761 87.162C7.42406 91.5746 0.0158183 97.0668 0.0199002 110.206C0.0229617 121.087 7.16383 131.279 20.1266 138.904C30.707 145.128 44.1448 148.997 55.1957 149C55.2033 149 55.21 149 55.2171 149C75.2723 149 94.1253 141.259 108.305 127.202C122.304 113.325 130.09 94.9315 130.294 75.3304C135.048 69.9213 139.653 64.5449 143.857 59.4787C151.049 50.8116 156.58 43.6601 160.295 38.2234C165.217 31.0223 167.372 26.6057 164.679 23.8917ZM103.995 122.854C90.9689 135.767 73.6482 142.877 55.2176 142.877C55.212 142.877 55.2038 142.877 55.1982 142.877C35.4482 142.871 6.14844 129.15 6.14283 110.204C6.13977 100.149 11.4259 96.2295 17.0228 92.0802C22.2543 88.2013 28.1839 83.8051 28.1818 74.4901C28.1788 65.1766 22.2477 60.7777 17.0146 56.8973C11.4152 52.7445 6.12599 48.8222 6.12293 38.7658C6.12038 27.1317 16.8192 19.1046 23.1972 15.3548C32.7378 9.74567 45.277 6.12242 55.1462 6.12242C55.1498 6.12242 55.1538 6.12242 55.1569 6.12242C70.2045 6.1265 84.5046 10.8442 96.5112 19.7643C107.585 27.992 116.037 39.5419 120.49 52.4449C107.21 64.0397 92.8308 77.4081 82.1218 88.1518C64.3352 90.4541 61.912 102.308 60.1405 111.016C58.6322 118.431 57.653 122.016 51.9296 122.475C50.5193 122.589 49.3707 123.653 49.1508 125.051C48.9304 126.448 49.6963 127.814 51.0035 128.356C51.3714 128.508 60.1252 132.084 70.3525 132.085C70.354 132.085 70.355 132.085 70.3561 132.085C77.4831 132.085 83.5969 130.357 88.5269 126.95C94.6018 122.752 98.7211 116.096 100.791 107.17C107.788 100.091 115.783 91.5541 123.689 82.7611C121.869 97.9001 115.038 111.907 103.995 122.854ZM94.6401 106.59C91.396 119.446 83.2331 125.963 70.3555 125.962C70.3555 125.962 70.3535 125.962 70.3525 125.962C66.9568 125.962 63.705 125.499 60.9711 124.922C64.2367 121.591 65.2567 116.58 66.1399 112.238C67.8222 103.968 69.4131 96.1412 82.4284 94.2819L94.6401 106.59ZM136.917 58.2393C124.781 72.6981 110.091 88.9351 97.998 101.28L96.1259 99.3935L87.8656 91.0679C98.8297 80.1538 112.895 67.14 126.018 55.7508C127.548 54.4232 129.068 53.1123 130.566 51.8347C145.795 38.8464 153.776 33.1939 157.848 30.7341C155.416 34.8298 149.816 42.8717 136.917 58.2393Z" fill="#696B6F"/>
</svg>
