<svg width="32" height="32" viewBox="0 0 32 32" fill="none" xmlns="http://www.w3.org/2000/svg">
<g clip-path="url(#clip0_1635_5202)">
<path d="M16 0C7.16429 0 0 7.16429 0 16C0 24.8357 7.16429 32 16 32C24.8357 32 32 24.8357 32 16C32 7.16429 24.8357 0 16 0ZM16 29.2857C8.66429 29.2857 2.71429 23.3357 2.71429 16C2.71429 8.66429 8.66429 2.71429 16 2.71429C23.3357 2.71429 29.2857 8.66429 29.2857 16C29.2857 23.3357 23.3357 29.2857 16 29.2857Z" fill="#555555"/>
<path d="M23.4071 15.5393L12.8321 7.86072C12.7473 7.79855 12.6469 7.76115 12.5421 7.75269C12.4373 7.74424 12.3322 7.76505 12.2385 7.81282C12.1448 7.86059 12.0662 7.93343 12.0115 8.02324C11.9568 8.11304 11.9281 8.21628 11.9286 8.32144V23.6786C11.9286 24.1464 12.4571 24.4107 12.8321 24.1393L23.4071 16.4607C23.4801 16.4081 23.5396 16.3389 23.5806 16.2588C23.6216 16.1787 23.643 16.09 23.643 16C23.643 15.91 23.6216 15.8213 23.5806 15.7412C23.5396 15.6611 23.4801 15.5919 23.4071 15.5393ZM14.2071 20.325V11.675L20.1607 16L14.2071 20.325Z" fill="#555555"/>
</g>
<defs>
<clipPath id="clip0_1635_5202">
<rect width="32" height="32" fill="white"/>
</clipPath>
</defs>
</svg>
