<svg width="32" height="32" viewBox="0 0 32 32" fill="none" xmlns="http://www.w3.org/2000/svg">
<path d="M29.6179 8.18929L23.8107 2.38215C23.5429 2.11429 23.2143 1.91787 22.8571 1.81072V1.71429H2.85714C2.22499 1.71429 1.71428 2.22501 1.71428 2.85715V29.1429C1.71428 29.775 2.22499 30.2857 2.85714 30.2857H29.1429C29.775 30.2857 30.2857 29.775 30.2857 29.1429V9.80358C30.2857 9.19644 30.0464 8.61787 29.6179 8.18929ZM11.4286 4.28572H20.5714V8.00001H11.4286V4.28572ZM27.7143 27.7143H4.28571V4.28572H9.14285V9.14287C9.14285 9.77501 9.65357 10.2857 10.2857 10.2857H21.7143C22.3464 10.2857 22.8571 9.77501 22.8571 9.14287V5.06429L27.7143 9.92144V27.7143ZM16 13.5C13.1607 13.5 10.8571 15.8036 10.8571 18.6429C10.8571 21.4822 13.1607 23.7857 16 23.7857C18.8393 23.7857 21.1429 21.4822 21.1429 18.6429C21.1429 15.8036 18.8393 13.5 16 13.5ZM16 21.5C14.4214 21.5 13.1429 20.2214 13.1429 18.6429C13.1429 17.0643 14.4214 15.7857 16 15.7857C17.5786 15.7857 18.8571 17.0643 18.8571 18.6429C18.8571 20.2214 17.5786 21.5 16 21.5Z" fill="#3FB950"/>
</svg>
