<svg width="14" height="12" viewBox="0 0 14 12" fill="none" xmlns="http://www.w3.org/2000/svg">
<g clip-path="url(#clip0_1396_8546)">
<path d="M12.3531 3.00804L8.99063 0.125893C8.89688 0.0455357 8.77031 0 8.6375 0H2C1.72344 0 1.5 0.191518 1.5 0.428571V11.5714C1.5 11.8085 1.72344 12 2 12H12C12.2766 12 12.5 11.8085 12.5 11.5714V3.31205C12.5 3.19821 12.4469 3.08839 12.3531 3.00804ZM11.3469 3.50893H8.40625V0.988393L11.3469 3.50893ZM11.375 11.0357H2.625V0.964286H7.34375V3.85714C7.34375 4.00633 7.41289 4.1494 7.53596 4.25489C7.65903 4.36038 7.82595 4.41964 8 4.41964H11.375V11.0357ZM6.875 7.41964H4C3.93125 7.41964 3.875 7.46786 3.875 7.52679V8.16964C3.875 8.22857 3.93125 8.27679 4 8.27679H6.875C6.94375 8.27679 7 8.22857 7 8.16964V7.52679C7 7.46786 6.94375 7.41964 6.875 7.41964ZM3.875 5.70536V6.34821C3.875 6.40714 3.93125 6.45536 4 6.45536H10C10.0688 6.45536 10.125 6.40714 10.125 6.34821V5.70536C10.125 5.64643 10.0688 5.59821 10 5.59821H4C3.93125 5.59821 3.875 5.64643 3.875 5.70536Z" fill="#696B6F"/>
</g>
<defs>
<clipPath id="clip0_1396_8546">
<rect width="14" height="12" fill="white"/>
</clipPath>
</defs>
</svg>
