<svg width="18" height="18" viewBox="0 0 18 18" fill="none" xmlns="http://www.w3.org/2000/svg">
<path d="M7.20007 3.95007C7.61429 3.95007 7.95007 4.28586 7.95007 4.70007V6.45007H9.70007C10.1143 6.45007 10.4501 6.78586 10.4501 7.20007C10.4501 7.61429 10.1143 7.95007 9.70007 7.95007H7.95007V9.70007C7.95007 10.1143 7.61429 10.4501 7.20007 10.4501C6.78586 10.4501 6.45007 10.1143 6.45007 9.70007V7.95007H4.70007C4.28586 7.95007 3.95007 7.61429 3.95007 7.20007C3.95007 6.78586 4.28586 6.45007 4.70007 6.45007H6.45007V4.70007C6.45007 4.28586 6.78586 3.95007 7.20007 3.95007Z" fill="white"/>
<path fill-rule="evenodd" clip-rule="evenodd" d="M2.39866 11.9446C4.85544 14.4014 8.73488 14.5685 11.3851 12.4458L16.5408 17.6014C16.8337 17.8943 17.3085 17.8943 17.6014 17.6014C17.8943 17.3085 17.8943 16.8337 17.6014 16.5408L12.4458 11.3851C14.5685 8.73487 14.4014 4.85544 11.9446 2.39866C9.30856 -0.237379 5.0347 -0.237379 2.39866 2.39866C-0.237379 5.0347 -0.237379 9.30856 2.39866 11.9446ZM3.45932 3.45932C1.40907 5.50957 1.40907 8.83369 3.45932 10.8839C5.50807 12.9327 8.82882 12.9342 10.8794 10.8884L10.8839 10.8839L10.8885 10.8794C12.9342 8.82881 12.9327 5.50807 10.8839 3.45932C8.83369 1.40907 5.50957 1.40907 3.45932 3.45932Z" fill="white"/>
</svg>
