<svg width="18" height="18" viewBox="0 0 18 18" fill="none" xmlns="http://www.w3.org/2000/svg">
<path d="M4.69995 6.45007C4.28574 6.45007 3.94995 6.78586 3.94995 7.20007C3.94995 7.61429 4.28574 7.95007 4.69995 7.95007H9.69995C10.1142 7.95007 10.45 7.61429 10.45 7.20007C10.45 6.78586 10.1142 6.45007 9.69995 6.45007H4.69995Z" fill="white"/>
<path fill-rule="evenodd" clip-rule="evenodd" d="M2.39854 11.9446C4.85532 14.4014 8.73476 14.5685 11.385 12.4458L16.5407 17.6014C16.8335 17.8943 17.3084 17.8943 17.6013 17.6014C17.8942 17.3085 17.8942 16.8337 17.6013 16.5408L12.4457 11.3851C14.5683 8.73487 14.4013 4.85544 11.9445 2.39866C9.30844 -0.237379 5.03458 -0.237379 2.39854 2.39866C-0.237501 5.0347 -0.237501 9.30856 2.39854 11.9446ZM3.4592 3.45932C1.40895 5.50957 1.40895 8.83369 3.4592 10.8839C5.50795 12.9327 8.8287 12.9342 10.8793 10.8884L10.8838 10.8839L10.8883 10.8794C12.9341 8.82881 12.9326 5.50807 10.8838 3.45932C8.83357 1.40907 5.50945 1.40907 3.4592 3.45932Z" fill="white"/>
</svg>
